<svg xmlns="http://www.w3.org/2000/svg" width="1024" height="1024" viewBox="0 0 1024 1024">
  <defs>
    <linearGradient id="bg" x1="120" y1="80" x2="860" y2="960" gradientUnits="userSpaceOnUse">
      <stop offset="0" stop-color="#07111f"/>
      <stop offset="0.48" stop-color="#061926"/>
      <stop offset="1" stop-color="#041017"/>
    </linearGradient>
    <radialGradient id="halo" cx="512" cy="478" r="390" gradientUnits="userSpaceOnUse">
      <stop offset="0" stop-color="#25f0ff" stop-opacity="0.26"/>
      <stop offset="0.44" stop-color="#12b8d7" stop-opacity="0.12"/>
      <stop offset="1" stop-color="#001018" stop-opacity="0"/>
    </radialGradient>
    <linearGradient id="shield" x1="266" y1="222" x2="760" y2="806" gradientUnits="userSpaceOnUse">
      <stop offset="0" stop-color="#1a3143"/>
      <stop offset="0.35" stop-color="#0f2636"/>
      <stop offset="1" stop-color="#07131f"/>
    </linearGradient>
    <linearGradient id="shield-edge" x1="284" y1="248" x2="734" y2="770" gradientUnits="userSpaceOnUse">
      <stop offset="0" stop-color="#38d9e5"/>
      <stop offset="0.44" stop-color="#159cb8"/>
      <stop offset="1" stop-color="#0a4b65"/>
    </linearGradient>
    <radialGradient id="tunnel" cx="512" cy="506" r="206" gradientUnits="userSpaceOnUse">
      <stop offset="0" stop-color="#06121c"/>
      <stop offset="0.55" stop-color="#071a28"/>
      <stop offset="0.76" stop-color="#0b3e53"/>
      <stop offset="1" stop-color="#21d4e4"/>
    </radialGradient>
    <linearGradient id="flow" x1="248" y1="606" x2="790" y2="398" gradientUnits="userSpaceOnUse">
      <stop offset="0" stop-color="#0c6f8a"/>
      <stop offset="0.28" stop-color="#21d3e8"/>
      <stop offset="0.58" stop-color="#edfdfd"/>
      <stop offset="1" stop-color="#16adc8"/>
    </linearGradient>
    <linearGradient id="flow-shadow" x1="266" y1="645" x2="788" y2="452" gradientUnits="userSpaceOnUse">
      <stop offset="0" stop-color="#05101a" stop-opacity="0.1"/>
      <stop offset="0.56" stop-color="#03111b" stop-opacity="0.48"/>
      <stop offset="1" stop-color="#010a10" stop-opacity="0.08"/>
    </linearGradient>
    <filter id="soft-shadow" x="-25%" y="-25%" width="150%" height="150%">
      <feDropShadow dx="0" dy="34" stdDeviation="26" flood-color="#00070c" flood-opacity="0.55"/>
    </filter>
    <filter id="glow" x="-35%" y="-35%" width="170%" height="170%">
      <feGaussianBlur stdDeviation="15" result="blur"/>
      <feMerge>
        <feMergeNode in="blur"/>
        <feMergeNode in="SourceGraphic"/>
      </feMerge>
    </filter>
    <clipPath id="shield-clip">
      <path d="M512 164 760 260v248c0 171-108 292-248 352-140-60-248-181-248-352V260l248-96z"/>
    </clipPath>
  </defs>

  <rect width="1024" height="1024" fill="url(#bg)"/>
  <circle cx="512" cy="478" r="390" fill="url(#halo)"/>
  <circle cx="178" cy="208" r="190" fill="#1ed9e8" opacity="0.06"/>
  <circle cx="852" cy="804" r="230" fill="#0f8daa" opacity="0.08"/>

  <g filter="url(#soft-shadow)">
    <path d="M512 164 760 260v248c0 171-108 292-248 352-140-60-248-181-248-352V260l248-96z" fill="url(#shield)"/>
    <path d="M512 184 736 271v234c0 151-91 258-224 318-133-60-224-167-224-318V271l224-87z" fill="none" stroke="url(#shield-edge)" stroke-width="10" opacity="0.72"/>
  </g>

  <g clip-path="url(#shield-clip)">
    <path d="M246 682c86-86 160-138 256-174 96-36 184-44 280-70v135c-96 34-187 50-274 87-87 37-158 88-262 184V682z" fill="url(#flow-shadow)"/>
    <path d="M214 636c87-70 161-112 247-139 93-30 183-33 337-108l15 130c-132 63-229 76-318 108-89 32-159 78-281 182V636z" fill="url(#flow)" filter="url(#glow)" opacity="0.94"/>
    <path d="M238 615c74-51 142-83 222-108 98-31 196-38 321-94" fill="none" stroke="#efffff" stroke-width="18" stroke-linecap="round" opacity="0.72"/>
    <path d="M233 671c84-70 158-112 244-141 96-32 190-40 321-105" fill="none" stroke="#1be0f5" stroke-width="44" stroke-linecap="round" opacity="0.4"/>
  </g>

  <g filter="url(#soft-shadow)">
    <circle cx="512" cy="504" r="198" fill="url(#tunnel)"/>
    <circle cx="512" cy="504" r="158" fill="#07131e"/>
    <circle cx="512" cy="504" r="112" fill="#030911"/>
    <path d="M386 493c42-42 87-63 135-63 52 0 94 24 126 72-27 14-63 25-108 35-52 12-103 30-153 56-8-33-8-67 0-100z" fill="#102738" opacity="0.94"/>
    <circle cx="512" cy="504" r="198" fill="none" stroke="#24e1ef" stroke-width="16" opacity="0.82"/>
    <circle cx="512" cy="504" r="154" fill="none" stroke="#0a728a" stroke-width="20" opacity="0.54"/>
  </g>

  <g clip-path="url(#shield-clip)">
    <path d="M214 636c87-70 161-112 247-139 93-30 183-33 337-108l15 130c-132 63-229 76-318 108-89 32-159 78-281 182V636z" fill="url(#flow)" opacity="0.92"/>
    <path d="M238 615c74-51 142-83 222-108 98-31 196-38 321-94" fill="none" stroke="#efffff" stroke-width="15" stroke-linecap="round" opacity="0.78"/>
  </g>

  <g>
    <circle cx="512" cy="504" r="87" fill="#02070d"/>
    <circle cx="512" cy="504" r="91" fill="none" stroke="#092838" stroke-width="16"/>
    <path d="M444 553c48-25 97-43 146-54 31-7 59-15 84-25 2 10 3 20 3 30 0 91-74 165-165 165-29 0-57-8-81-21 2-32 6-64 13-95z" fill="#04111c" opacity="0.82"/>
    <circle cx="512" cy="504" r="112" fill="none" stroke="#49f4ff" stroke-width="8" opacity="0.9"/>
    <path d="M359 373c34-62 89-100 153-100s119 38 153 100" fill="none" stroke="#b8fbff" stroke-width="8" stroke-linecap="round" opacity="0.22"/>
  </g>
</svg>
